<?xml version="1.0" standalone="no"?>
<!DOCTYPE svg PUBLIC "-//W3C//DTD SVG 20010904//EN"
 "http://www.w3.org/TR/2001/REC-SVG-20010904/DTD/svg10.dtd">
<svg version="1.0" xmlns="http://www.w3.org/2000/svg"
 width="854.000000pt" height="854.000000pt" viewBox="0 0 854.000000 854.000000"
 preserveAspectRatio="xMidYMid meet">
<metadata>
Created by potrace 1.11, written by Peter Selinger 2001-2013
</metadata>
<g transform="translate(0.000000,854.000000) scale(0.100000,-0.100000)"
fill="#000000" stroke="none">
<path d="M4058 8115 c-1 -1 -38 -6 -80 -9 -43 -3 -83 -8 -90 -11 -7 -2 -31 -6
-53 -9 -300 -38 -775 -218 -1111 -422 -104 -63 -285 -182 -294 -193 -3 -4 -30
-24 -60 -46 -30 -22 -66 -49 -80 -61 -14 -13 -69 -59 -123 -104 -238 -199
-508 -496 -714 -785 -297 -418 -512 -920 -579 -1345 -3 -19 -7 -42 -9 -50 -3
-8 -7 -49 -10 -90 -3 -41 -8 -90 -10 -107 -3 -18 -1 -33 3 -33 4 0 33 13 64
29 97 51 282 111 385 127 21 3 45 7 53 9 18 5 86 14 160 20 46 4 304 5 378 2
12 -1 21 -6 18 -11 -3 -6 -27 -60 -54 -121 -45 -100 -124 -318 -136 -377 -3
-13 -7 -32 -10 -43 -51 -206 -70 -366 -70 -600 0 -231 5 -276 70 -600 7 -34
61 -209 74 -240 4 -11 18 -47 30 -80 28 -73 135 -291 178 -360 17 -27 43 -71
58 -97 15 -27 31 -48 36 -48 4 0 8 -5 8 -10 0 -29 210 -279 342 -406 384 -370
841 -605 1348 -693 63 -11 147 -23 185 -27 78 -6 356 -6 395 0 14 3 50 7 80
10 54 6 89 11 140 21 14 3 36 7 49 10 13 2 60 14 105 25 506 130 989 452 1332
890 304 387 498 875 540 1360 4 36 6 115 7 175 0 114 -6 183 -29 345 -2 19 -7
53 -10 75 -3 22 -7 48 -10 57 -3 9 -7 25 -9 35 -69 325 -194 641 -353 888 -14
22 -37 58 -51 80 -14 22 -43 63 -64 90 -20 28 -41 55 -45 60 -44 60 -114 139
-204 229 -59 61 -108 111 -108 113 0 2 35 50 79 106 105 136 210 299 263 408
24 48 46 88 50 89 4 0 13 -6 20 -12 7 -7 42 -38 78 -68 132 -110 327 -315 402
-420 130 -184 255 -402 328 -570 18 -41 40 -93 50 -115 46 -103 144 -430 170
-565 10 -51 13 -70 26 -155 2 -16 6 -41 9 -55 16 -82 28 -271 29 -430 0 -132
-9 -345 -18 -385 -2 -11 -7 -49 -11 -85 -4 -36 -11 -84 -16 -108 -5 -23 -12
-59 -15 -78 -21 -131 -87 -361 -154 -539 -335 -882 -1050 -1591 -1940 -1923
-166 -62 -365 -122 -460 -138 -14 -3 -70 -13 -125 -24 -55 -10 -127 -22 -160
-25 -33 -4 -71 -8 -85 -11 -39 -6 -266 -17 -360 -17 -94 0 -325 12 -343 18 -7
2 -39 6 -72 9 -33 4 -73 9 -90 11 -84 15 -142 26 -165 30 -14 3 -36 7 -50 10
-63 12 -303 78 -345 95 -11 5 -47 18 -80 30 -33 11 -69 25 -80 30 -11 5 -49
21 -85 36 -243 99 -557 287 -790 474 -104 84 -110 87 -60 35 136 -141 419
-368 583 -468 397 -243 759 -384 1184 -461 244 -44 323 -51 613 -51 239 0 352
6 475 25 33 5 80 12 105 16 25 3 50 7 55 8 6 2 28 6 50 10 431 82 903 284
1280 549 214 150 476 387 633 573 268 316 473 664 609 1034 36 99 90 268 97
304 2 12 13 57 24 101 21 81 47 216 57 290 3 22 7 54 9 70 16 123 20 199 20
410 1 314 -18 501 -79 775 -23 105 -103 375 -125 425 -5 11 -25 61 -45 110
-55 137 -109 246 -193 395 -42 74 -79 139 -84 145 -4 5 -42 59 -83 119 -42 60
-114 156 -162 215 -93 115 -360 384 -435 441 -26 19 -48 38 -48 41 0 4 16 30
35 59 19 29 35 60 35 70 0 20 -53 123 -76 151 -8 8 -14 19 -14 23 0 9 -120
189 -221 331 -71 99 -287 327 -419 440 -210 181 -494 342 -755 427 -72 23
-242 64 -305 74 -25 3 -58 8 -75 11 -36 5 -412 13 -417 8z"/>
</g>
</svg>
